<?xml version="1.0" encoding="UTF-8"?>
<svg width="13px" height="8px" viewBox="0 0 13 8" version="1.1" xmlns="http://www.w3.org/2000/svg" xmlns:xlink="http://www.w3.org/1999/xlink">
    <!-- Generator: Sketch 55.2 (78181) - https://sketchapp.com -->
    <title></title>
    <desc>Created with Sketch.</desc>
    <g id="Page-1" stroke="none" stroke-width="1" fill="none" fill-rule="evenodd">
        <g id="Desktop-HD" transform="translate(-1137.000000, -3029.000000)" fill="#000000" fill-rule="nonzero">
            <g id="FAQ-section" transform="translate(273.000000, 2827.000000)">
                <g id="Open-accordion" transform="translate(0.000000, 176.000000)">
                    <path d="M864.121875,27.0416667 C864.040625,26.9583329 864,26.8333342 864,26.6666667 C864,26.4722213 864.067708,26.3125006 864.203125,26.1875 C864.338542,26.0624994 864.501041,26 864.690625,26 L876.309375,26 C876.498959,26 876.661458,26.0624994 876.796875,26.1875 C876.932292,26.3125006 877,26.4722213 877,26.6666667 C877,26.8055562 876.959375,26.9166663 876.878125,27 L876.796875,27.125 L871.271875,33.625 C871.028124,33.8750012 870.770835,34 870.5,34 C870.229165,34 869.971876,33.8750012 869.728125,33.625 L864.203125,27.125 L864.121875,27.0416667 Z" id="" transform="translate(870.500000, 30.000000) scale(1, -1) translate(-870.500000, -30.000000) "></path>
                </g>
            </g>
        </g>
    </g>
</svg>