<?xml version="1.0" encoding="UTF-8"?>
<svg width="322px" height="197px" viewBox="0 0 322 197" version="1.1" xmlns="http://www.w3.org/2000/svg" xmlns:xlink="http://www.w3.org/1999/xlink">
    <!-- Generator: Sketch 55.2 (78181) - https://sketchapp.com -->
    <title>Group 351@1x</title>
    <desc>Created with Sketch.</desc>
    <defs>
        <polygon id="path-1" points="0 0.316219765 27.8442686 0.316219765 27.8442686 153.725914 0 153.725914"></polygon>
        <polygon id="path-3" points="0.229280631 0.181703529 197.144523 0.181703529 197.144523 5.87875812 0.229280631 5.87875812"></polygon>
        <polygon id="path-5" points="0.0742520997 0.181703529 240.662754 0.181703529 240.662754 156.952079 0.0742520997 156.952079"></polygon>
        <polygon id="path-7" points="0.0446734577 0.390755294 238.73043 0.390755294 238.73043 56.57052 0.0446734577 56.57052"></polygon>
    </defs>
    <g id="Page-1" stroke="none" stroke-width="1" fill="none" fill-rule="evenodd">
        <g id="Desktop-HD" transform="translate(-227.000000, -4052.000000)">
            <g id="LAst-section" transform="translate(227.000000, 4052.000000)">
                <g id="Group-351">
                    <polygon id="Fill-1" fill="#000739" points="28 156.782343 85.5148748 194 319.29758 167.863495 321 165.287987 242.311996 134"></polygon>
                    <g id="Group-350">
                        <g id="Group-4" transform="translate(0.000000, 5.562353)">
                            <mask id="mask-2" fill="white">
                                <use xlink:href="#path-1"></use>
                            </mask>
                            <g id="Clip-3"></g>
                            <path d="M6.69713802,0.316219765 C6.69713802,0.316219765 0.392960115,3.26658447 2.62617102,13.2208786 L27.8442686,151.389726 L27.098171,153.725914 C27.098171,153.725914 25.2987593,151.29702 24.2306617,144.492872 C23.1621022,137.68826 -0.000184791966,10.7725162 -0.000184791966,10.7725162 C-0.000184791966,10.7725162 0.0926731707,4.90562447 2.62617102,2.83967388 C5.16059283,0.773259765 6.69713802,0.316219765 6.69713802,0.316219765" id="Fill-2" fill="#F9AE32" mask="url(#mask-2)"></path>
                        </g>
                        <g id="Group-7" transform="translate(6.467719, 0.000000)">
                            <mask id="mask-4" fill="white">
                                <use xlink:href="#path-3"></use>
                            </mask>
                            <g id="Clip-6"></g>
                            <polygon id="Fill-5" fill="#722490" mask="url(#mask-4)" points="197.144523 0.181518118 172.536239 1.11923812 147.926107 1.960544 98.7002993 3.49297224 49.4684858 4.81078635 24.8505001 5.39344282 0.229280631 5.87875812 24.8371027 4.939184 49.4476967 4.09787812 98.6739664 2.567304 147.905318 1.251344 172.523766 0.667760471"></polygon>
                        </g>
                        <g id="Group-10" transform="translate(2.309900, 0.000000)">
                            <mask id="mask-6" fill="white">
                                <use xlink:href="#path-5"></use>
                            </mask>
                            <g id="Clip-9"></g>
                            <path d="M5.82866198,5.87857271 C5.82866198,5.87857271 -1.31447145,6.87979624 0.316317647,18.7832315 C1.9480307,30.6866668 25.5344152,156.952079 25.5344152,156.952079 L240.662754,135.704354 L212.610871,9.54972565 C212.610871,9.54972565 211.72387,-1.129992 198.751474,0.316219765 C185.779078,1.76243153 5.82866198,5.87857271 5.82866198,5.87857271" id="Fill-8" fill="#104DF0" mask="url(#mask-6)"></path>
                        </g>
                        <path d="M27.8444534,156.952264 L242.97233,135.704076 L214.92091,9.54991106 C214.92091,9.54991106 214.033908,-1.12980659 201.061512,0.316405176 C188.089116,1.76215341 27.8444534,156.952264 27.8444534,156.952264" id="Fill-11" fill="#24C7F4"></path>
                        <polygon id="Fill-13" fill="#000739" points="209.266091 9.43829318 10.0233934 16.7805991 32.4201796 145.604693 234.656969 125.469439"></polygon>
                        <path d="M24.9915888,17.2257264 C25.0728973,17.0273358 25.193474,17.2095028 25.3242143,17.2257264 C30.0812215,27.1002934 36.1077495,35.7010816 41.0684898,45.3712322 C35.4614396,36.2383122 29.8950436,27.0650652 24.9915888,17.2257264" id="Fill-15" fill="#FAAE33"></path>
                        <path d="M61.4695228,18.1157028 C63.3853535,20.8287405 64.8082516,24.036364 66.6806562,26.7929734 C64.4770121,24.3687146 63.1428141,21.0720934 61.4695228,18.1157028" id="Fill-17" fill="#FAAE33"></path>
                        <path d="M64.1306195,18.2268108 C65.9194057,21.0307002 67.4564129,24.0862861 69.0091274,27.1265755 C67.1168577,24.4269802 65.5142494,21.4372155 64.1306195,18.2268108" id="Fill-19" fill="#124FF0"></path>
                        <path d="M34.8594336,18.5606447 C38.8001222,25.2122918 43.060501,31.5431765 47.6100792,37.5838918 C46.1081825,36.5905482 45.107072,34.8791976 44.0620735,33.3565035 C40.8854996,28.7276988 37.3698324,23.8768635 34.8594336,18.5606447" id="Fill-21" fill="#24C6F3"></path>
                        <path d="M66.3480307,18.5606447 C67.5274654,20.6775835 68.7549461,22.7463153 69.7851613,25.0129741 C68.4680565,23.0341671 67.3204984,20.8852447 66.3480307,18.5606447" id="Fill-23" fill="#124FF0"></path>
                        <path d="M73.2222456,18.8944786 L73.5548712,18.8944786 C74.0843001,20.0690621 74.5749228,21.2825821 74.8853733,22.6768786 C73.834831,21.9143727 73.5618009,20.3708198 73.2222456,18.8944786" id="Fill-25" fill="#124FF0"></path>
                        <path d="M60.0280993,19.1169727 C61.8589257,21.729888 63.3552786,24.6783986 65.0174824,27.4605021 C62.9177836,25.1173609 61.5202944,22.0696551 60.0280993,19.1169727" id="Fill-27" fill="#FAAE33"></path>
                        <path d="M40.5141601,19.2281271 C44.5860511,25.2289788 48.3225446,31.5663529 52.3778043,37.5838918 C51.5924385,37.2376353 51.1955977,36.4005012 50.7146766,35.6926918 C47.2937154,30.6587624 43.8173165,24.95596 40.6250353,19.5618682 C40.494757,19.5437906 40.5317154,19.3593059 40.5141601,19.2281271" id="Fill-29" fill="#24C6F3"></path>
                        <path d="M78.2117673,19.2281271 C78.9740341,19.7611859 79.114938,20.9176918 79.4313943,21.8980565 C78.6949983,21.33904 78.5065105,20.2302776 78.2117673,19.2281271" id="Fill-31" fill="#124FF0"></path>
                        <path d="M38.4074855,19.3394668 C38.5058872,19.3886009 38.6056749,19.436808 38.6292359,19.5619609 C40.1962717,22.4859045 41.8547796,25.3723021 43.6186189,28.1279845 C45.3722947,30.8683704 46.9822947,33.691728 49.0515027,36.1377727 C48.2823062,36.0218904 47.7995372,35.1462833 47.388375,34.5803139 C44.1309547,30.0938127 41.1770551,24.7145539 38.4074855,19.673208 C38.2102201,19.5916268 38.3913162,19.4706456 38.4074855,19.3394668" id="Fill-33" fill="#24C6F3"></path>
                        <path d="M74.7746829,19.4505748 C75.4196069,20.146796 75.9157733,21.5577795 76.1051851,22.3429984 C75.2301951,21.8117936 75.049561,20.5839042 74.7746829,19.4505748" id="Fill-35" fill="#124FF0"></path>
                        <path d="M75.6616382,19.4505748 C76.3887945,19.9817795 76.5541834,21.0770995 76.8812651,22.0092572 C76.1074488,21.5248689 75.9984215,20.3729984 75.6616382,19.4505748" id="Fill-37" fill="#124FF0"></path>
                        <path d="M76.9920941,19.5619609 C77.5635633,20.2118292 77.8814055,21.1171021 78.1008459,22.1206433 C77.4910324,21.5718245 76.9920941,20.3555233 76.9920941,19.5619609" id="Fill-39" fill="#124FF0"></path>
                        <path d="M79.5422232,19.5619609 C80.1474169,20.0301256 80.2675317,20.9849962 80.5400999,21.7869021 C80.0485532,21.2654315 79.4156407,20.3379092 79.5422232,19.5619609" id="Fill-41" fill="#124FF0"></path>
                        <path d="M71.8917897,19.6730689 C72.7931125,20.9194995 73.4052359,22.4560995 74.1092933,23.9004572 C73.1188083,22.7434878 72.1634339,21.5512901 71.8917897,19.6730689" id="Fill-43" fill="#124FF0"></path>
                        <path d="M14.1258212,19.8955631 C20.0276146,30.327756 26.4348141,40.2519207 32.1984755,50.8222454 C25.9446534,40.7432619 19.5998212,30.7569842 14.1258212,19.8955631" id="Fill-45" fill="#FAAE33"></path>
                        <path d="M52.932134,19.8955631 L53.2647595,19.8955631 C55.4490006,23.7855019 58.0254626,27.2819042 60.0281455,31.3540101 C57.4258126,27.7727819 55.2609747,23.7516642 52.932134,19.8955631" id="Fill-47" fill="#FAAE33"></path>
                        <path d="M32.752759,20.3405513 C32.9320072,20.3094948 32.9435567,20.4457725 33.0853845,20.4517984 C36.9022626,27.1164242 40.7140588,33.7866125 45.1707791,39.8087866 C43.7986987,38.8010736 42.9043056,37.0433701 41.7336485,35.4701513 C40.6114993,33.9622901 39.5775882,32.3835089 38.6291435,30.6865278 C36.6888278,27.2142289 34.3992554,23.9546901 32.752759,20.3405513" id="Fill-49" fill="#24C6F3"></path>
                        <path d="M48.1645937,20.3405513 C51.4035349,24.2476407 54.2456353,28.5529019 56.4802321,33.4677042 C53.8732795,28.9265066 50.9595722,24.6930925 48.1645937,20.3405513" id="Fill-51" fill="#24C6F3"></path>
                        <path d="M50.8254594,20.4518911 C51.6533274,20.908004 52.167511,21.8522134 52.7103374,22.6768322 C54.3194135,25.1214864 56.2726646,27.7014911 57.5888453,30.4641264 C55.2401395,27.2212746 53.1385928,23.7304346 50.8254594,20.4518911" id="Fill-53" fill="#24C6F3"></path>
                        <path d="M45.8361687,21.4532073 L46.1687943,21.4532073 C49.2271013,25.7264849 52.1056981,30.1810026 54.5953079,35.0253485 C51.5845848,30.5921532 49.027064,25.7046991 45.8361687,21.4532073" id="Fill-55" fill="#24C6F3"></path>
                        <path d="M16.5649828,32.8003609 C17.3900789,33.3496433 17.8465151,34.5126386 18.4498608,35.5815374 C22.2893759,42.3815139 27.1919067,49.5861515 31.2005065,56.0509962 C25.6983257,48.9265492 21.3062826,40.6887045 16.5649828,32.8003609" id="Fill-57" fill="#FAAE33"></path>
                        <path d="M15.7889951,36.1376336 C18.2702892,39.2469889 20.3662921,43.8679136 22.6632562,47.2623395 C25.151942,50.9399819 27.1116608,54.6241136 29.315767,58.0533042 C27.9723294,56.5162407 26.7540884,54.6760289 25.6568861,52.8246925 C22.4553653,47.4250384 18.9068976,41.8455348 15.7889951,36.1376336" id="Fill-59" fill="#FAAE33"></path>
                        <path d="M17.784656,46.9287374 C20.6872758,51.6553468 23.580194,56.3916904 26.3220448,61.279608 C23.9798066,58.2263398 21.9641882,54.5477704 19.8912844,50.8223845 C19.1285555,49.451728 18.1486961,48.3415751 17.784656,46.9287374" id="Fill-61" fill="#FAAE33"></path>
                        <path d="M18.449907,56.0510889 C19.7346732,57.8769313 20.9302772,59.7922348 22.1087879,61.7246889 C20.5833303,60.1403454 19.4075914,58.2051101 18.449907,56.0510889" id="Fill-63" fill="#FAAE33"></path>
                        <path d="M19.2260795,18.7831388 C24.4884927,28.5585106 30.3330006,37.7498353 36.0791067,47.0398918 C33.0633019,42.8157482 30.0405673,38.1489341 27.2090924,33.4677506 C24.3545185,28.7480941 21.5613879,23.8689835 19.2260795,18.7831388" id="Fill-65" fill="#FAAE33"></path>
                        <path d="M69.0091736,18.8944786 C69.5247432,20.1209774 70.3193486,21.5579186 71.0049268,22.8993727 C71.1689297,23.2205986 71.6743357,23.8593421 71.3375524,23.9005962 C70.5378651,22.2550668 69.4092482,20.9404974 69.0091736,18.8944786" id="Fill-67" fill="#124FF0"></path>
                        <path d="M29.0939242,19.2281271 C33.0854307,26.05128 37.0099501,32.9416447 40.8466933,39.92008 C38.6971007,36.9581271 36.6486818,33.3977576 34.6376832,29.9078447 C33.6365727,28.1700729 32.7403317,26.3307882 31.7549286,24.5679859 C30.7722973,22.8098188 29.5979443,21.1133012 29.0939242,19.2281271" id="Fill-69" fill="#FAAE33"></path>
                        <path d="M42.6208347,19.7844551 C43.2930155,19.9239774 43.5166138,20.7458151 43.8404617,21.2306668 C46.3014287,24.9180433 49.5172709,28.7583845 51.7125994,32.911608 C51.83641,33.1429092 51.8317902,33.1475445 51.6017242,33.0228551 C48.6344273,28.5836339 45.5410098,24.2709562 42.6208347,19.7844551" id="Fill-71" fill="#24C6F3"></path>
                        <path d="M58.0323923,19.6730689 C59.718157,22.9506854 61.810926,25.8199325 63.2435257,29.3515631 C61.5716204,26.1337419 59.1055716,23.1212642 58.0323923,19.6730689" id="Fill-73" fill="#FAAE33"></path>
                        <path d="M55.8149811,20.1180572 C57.9280772,22.6702501 59.405027,25.8607231 60.9152393,29.0178219 C59.0779452,26.1884384 57.4859624,23.1138478 55.8149811,20.1180572" id="Fill-75" fill="#FAAE33"></path>
                        <path d="M16.8977007,20.7854932 C17.8738643,21.4594649 18.5169403,22.910312 19.2260795,24.1229049 C24.1748083,32.5906602 29.3905615,41.3193826 34.9703549,49.2647402 C31.4556118,45.2375967 28.6195171,40.2324061 25.5459647,35.4701049 C22.4645587,30.6962155 19.85853,25.5454767 16.8977007,20.7854932" id="Fill-77" fill="#FAAE33"></path>
                        <path d="M24.2153702,21.4532073 C25.8322999,23.5845155 26.7969139,26.1070426 28.2068766,28.3505249 C32.361462,34.9618449 36.3552783,41.8619438 40.4031463,48.7087367 C34.8302826,40.2460802 29.1211349,30.9555602 24.2153702,21.4532073" id="Fill-79" fill="#FAAE33"></path>
                        <path d="M15.7889951,26.570572 C21.0296953,35.6997838 26.1207139,44.9801061 32.0876465,53.3811132 C32.2114571,53.6124144 32.2072993,53.6170496 31.9767713,53.4923602 C25.8250468,45.2767649 20.5700253,36.1609955 15.7889951,26.570572" id="Fill-81" fill="#FAAE33"></path>
                        <path d="M16.8977007,41.5888786 C19.9232072,45.8213656 22.5934511,50.4103068 25.102464,55.1610198 C22.3670809,50.6374362 19.6765099,46.0688904 16.8977007,41.5888786" id="Fill-83" fill="#FAAE33"></path>
                        <path d="M18.6716112,51.4898205 C20.3989541,54.8749758 23.0179182,58.5493734 24.4371205,61.5020558 C22.3420416,58.3384675 20.1859813,55.2360652 18.6716112,51.4898205" id="Fill-85" fill="#FAAE33"></path>
                        <path d="M22.8849604,61.1684536 C21.3257782,59.7287313 19.9934281,57.0982019 18.7825788,54.9386184 C19.9629374,56.7579713 21.4620623,59.2211666 22.8849604,61.1684536" id="Fill-87" fill="#FAAE33"></path>
                        <path d="M214.920817,61.1684536 C216.205583,63.2914184 217.669136,65.2345336 218.579698,67.7320301 C217.280149,65.6243619 215.949646,63.5486772 214.920817,61.1684536" id="Fill-89" fill="#F7AE33"></path>
                        <path d="M214.80985,65.6181506 C214.891158,65.4202235 215.011735,65.6019271 215.142937,65.6181506 C216.73723,67.8750753 218.33337,70.1301459 219.466607,72.8492094 C217.819187,70.5352706 216.630512,67.7596565 214.80985,65.6181506" id="Fill-91" fill="#F7AE33"></path>
                        <path d="M214.920817,68.6218212 C215.485819,68.8540494 215.849397,69.5104071 216.251781,70.0680329 C217.402111,71.6639647 218.539968,73.7911012 219.577575,75.6303859 C217.846074,73.4745106 216.73917,70.6910165 214.920817,68.6218212" id="Fill-93" fill="#F7AE33"></path>
                        <path d="M215.807772,71.6257235 C217.321681,73.7792812 219.27447,76.0811682 220.132366,78.5230412 C218.80094,76.1140788 217.078217,74.0967988 215.807772,71.6257235" id="Fill-95" fill="#F7AE33"></path>
                        <path d="M212.5929,76.4092544 C216.059598,81.3110779 219.76791,85.9714026 223.015629,91.0938661 C220.326444,87.7457932 217.917219,84.0083555 215.253905,80.4141485 C214.276817,79.0949438 213.175919,77.9240685 212.5929,76.4092544" id="Fill-97" fill="#F7AE33"></path>
                        <path d="M212.5929,78.8565969 C216.415784,83.104844 219.662579,87.9311122 223.015629,92.6512322 C219.367374,88.226844 216.133514,83.3880605 212.5929,78.8565969" id="Fill-99" fill="#F7AE33"></path>
                        <path d="M212.5929,82.0827616 C216.797842,87.2455522 220.74777,92.6642111 224.678295,98.1028016 C220.389735,93.0239099 216.533127,87.5111546 212.5929,82.0827616" id="Fill-101" fill="#F7AE33"></path>
                        <path d="M211.040925,84.3078419 C217.284122,91.1342395 222.374678,99.1157525 228.004366,106.557254 C222.024498,99.4666442 216.977367,91.4420231 211.040925,84.3078419" id="Fill-103" fill="#F7AE33"></path>
                        <path d="M228.004227,110.228592 C221.477837,103.058256 215.946551,94.2266296 209.709822,86.5325049 C209.36149,86.1028132 209.177622,85.4177167 208.601071,85.3092508 L208.601071,85.0867567 C208.57058,84.8879026 208.70594,84.8582367 208.711946,84.9755096 L208.934158,84.9755096 C215.313177,93.3704908 221.548058,101.91102 228.004227,110.228592" id="Fill-105" fill="#F7AE33"></path>
                        <path d="M206.384121,91.5389471 C207.478552,91.7836906 207.812563,92.7320718 208.378951,93.4301471 C211.782819,97.6162812 215.556271,101.512709 218.912555,105.778571 C220.573834,107.889484 222.392649,109.927159 224.123226,112.008406 C225.855651,114.091507 227.875889,116.119448 228.780446,118.794476 C224.064555,112.092768 218.616888,106.124827 213.479671,99.7712294 C211.321763,97.1013 208.993384,94.70578 206.82716,91.9839353 C206.64052,92.1790812 207.169949,92.5985753 207.04891,93.0964059 C206.854417,92.5985753 206.28572,91.9695659 206.384121,91.5389471" id="Fill-107" fill="#F7AE33"></path>
                        <path d="M206.051172,95.5438875 C207.352108,96.2025628 208.161497,97.5097158 209.156139,98.5475581 C214.182943,103.797956 218.919161,109.990709 223.458576,115.902099 C224.381611,117.104495 225.229807,118.348144 226.119118,119.573252 C226.959459,120.729758 228.108865,121.683238 228.669247,123.021911 C226.415247,121.043568 224.875006,118.415356 223.125488,116.013346 C217.904653,108.842083 211.975603,102.157525 206.051172,95.5438875" id="Fill-109" fill="#F7AE33"></path>
                        <path d="M204.609287,96.6563118 C204.788997,96.6247918 204.800547,96.7615329 204.942374,96.7675588 C212.087356,104.801914 218.722311,113.348469 225.897321,121.353159 C218.212286,113.71234 211.7709,104.823236 204.609287,96.6563118" id="Fill-111" fill="#F7AE33"></path>
                        <path d="M202.170356,97.879844 C202.251665,97.6814534 202.372242,97.864084 202.503444,97.879844 C210.490615,106.923303 218.815031,115.629312 226.452483,125.02459 C222.265559,120.62894 218.306391,115.981131 214.255751,111.451985 C210.214351,106.932573 206.176646,102.43263 202.170356,97.879844" id="Fill-113" fill="#F7AE33"></path>
                        <path d="M199.84244,101.773676 C199.923748,101.575286 200.043863,101.757453 200.174603,101.773676 C207.683625,109.332914 213.926359,118.160368 221.351762,125.803041 C221.114305,125.901773 220.433808,125.321434 220.021722,124.913065 C217.069209,121.990048 214.12963,118.468615 211.372996,115.123324 C209.004425,112.248514 206.687134,109.257822 204.16611,106.446053 C202.720112,104.832971 201.561467,103.136453 199.84244,101.773676" id="Fill-115" fill="#F7AE33"></path>
                        <path d="M191.30482,102.886332 C198.128725,109.795702 204.05177,118.205052 210.264013,125.357775 C206.628694,122.149688 203.876679,117.99461 200.840547,114.233069 C197.77993,110.442789 194.543299,106.887982 191.415695,103.220074 C191.285879,103.201996 191.321913,103.016584 191.30482,102.886332" id="Fill-117" fill="#F7AE33"></path>
                        <path d="M189.419896,104.554853 C195.390524,111.395156 200.412708,119.185695 206.715962,125.691794 C204.939649,124.50006 203.648415,122.598662 202.170541,120.908171 C198.537531,116.752629 194.999689,112.214676 191.636937,107.558524 C190.829396,106.4391 189.993675,105.641366 189.419896,104.554853" id="Fill-119" fill="#F7AE33"></path>
                        <path d="M188.754922,124.913065 C190.412506,125.883232 192.073785,127.812441 193.52163,129.362947 C191.768417,128.044206 190.22217,126.518267 188.754922,124.913065" id="Fill-121" fill="#F7AE33"></path>
                        <path d="M188.53294,126.470663 C189.334013,126.854001 190.430292,127.903896 190.971732,128.917634 C190.045925,128.215851 189.352955,127.279058 188.53294,126.470663" id="Fill-123" fill="#F7AE33"></path>
                        <path d="M190.195883,129.362762 C189.152733,129.222776 188.735103,128.455635 188.088793,127.917013 C188.87924,127.880858 189.596695,128.8399 190.195883,129.362762" id="Fill-125" fill="#F7AE33"></path>
                        <path d="M187.202022,128.472785 C187.834473,128.8399 188.433661,129.239463 188.754737,129.918997 C187.963365,129.711799 187.613646,129.061931 187.202022,128.472785" id="Fill-127" fill="#F7AE33"></path>
                        <path d="M186.093086,128.806851 C186.933889,129.11278 187.580199,129.613856 187.977964,130.363846 C187.192136,130.003684 186.576779,129.471088 186.093086,128.806851" id="Fill-129" fill="#F7AE33"></path>
                        <path d="M215.36478,60.5007859 C216.098404,60.7293059 216.129819,61.661 216.473532,62.2807388 C216.066065,62.1685647 215.757463,60.9986165 215.36478,60.5007859" id="Fill-131" fill="#F7AE33"></path>
                        <path d="M213.035893,73.4055838 C216.195836,77.4294826 219.348387,82.4244755 222.349408,86.9777249 C221.25313,86.2768685 220.734326,84.9080661 220.021491,83.7515602 C217.904699,80.3163438 215.265408,76.8199414 213.035893,73.4055838" id="Fill-133" fill="#F7AE33"></path>
                        <path d="M214.477778,73.96168 C215.701101,74.8423859 216.560384,76.3993812 217.471408,77.8553271 C218.371345,79.2931953 219.472243,80.6661694 220.243288,82.0827153 C218.271096,79.8712165 216.632453,76.3604447 214.477778,73.96168" id="Fill-135" fill="#F7AE33"></path>
                        <path d="M208.93402,89.4252066 C210.933469,91.3108442 213.114476,94.2041948 215.142568,96.6562654 C219.902347,102.41052 224.771153,108.506858 229.001965,114.900783 C225.632745,110.642338 222.522697,106.232783 219.134536,101.996588 C215.772708,97.7919125 212.245492,93.6845784 208.93402,89.4252066" id="Fill-137" fill="#F7AE33"></path>
                        <path d="M199.065528,97.4349021 C207.932308,106.116344 215.343852,117.220192 224.345531,126.136643 C214.878638,117.613728 207.777083,106.716152 199.065528,97.4349021" id="Fill-139" fill="#F7AE33"></path>
                        <path d="M196.51563,100.549681 C197.7967,101.27186 198.408824,102.651787 199.287509,103.776309 C205.298792,111.467189 211.940677,119.105227 218.801541,126.136504 C210.568135,118.860947 203.647676,109.302507 196.51563,100.549681" id="Fill-141" fill="#F7AE33"></path>
                        <path d="M194.298681,102.774993 C200.43978,109.81415 206.433969,117.001174 212.814836,123.800223 C211.229321,122.77536 209.2271,120.263494 207.714115,118.572075 C206.161401,116.835694 204.434982,115.161889 203.057358,113.454247 C201.602121,111.651581 199.948695,109.996781 198.511475,108.226099 C197.040069,106.412772 195.500752,104.688906 194.298681,102.774993" id="Fill-143" fill="#F7AE33"></path>
                        <path d="M189.752844,111.229862 C192.132041,112.683027 193.560483,115.126754 195.406555,117.125956 C197.237381,119.108008 198.87972,121.306991 200.507275,123.466575 C196.916305,119.467707 193.2565,114.94505 189.752844,111.229862" id="Fill-145" fill="#F7AE33"></path>
                        <path d="M189.197914,113.454247 C191.660267,116.461162 194.679306,119.779106 197.513553,122.910247 C198.280439,123.758042 199.907533,125.73036 200.063682,126.136412 C196.29023,122.061524 192.418376,118.084442 189.197914,113.454247" id="Fill-147" fill="#F7AE33"></path>
                        <path d="M190.084916,119.350712 C190.918789,119.523145 191.567409,120.400142 192.192006,121.130665 C193.71654,122.914789 195.638376,124.436556 197.180465,126.359276 C197.342158,126.559985 197.951972,127.324808 197.624428,127.249253 C195.087234,124.640973 192.51493,122.067458 190.084916,119.350712" id="Fill-149" fill="#F7AE33"></path>
                        <path d="M190.528832,123.244498 C192.521813,124.989686 194.090235,127.161321 196.072591,128.917634 C194.053277,127.643392 192.167475,125.271512 190.528832,123.244498" id="Fill-151" fill="#F7AE33"></path>
                        <path d="M27.8444534,156.952264 L27.3201062,161.290899 L81.648944,196.111229 C81.648944,196.111229 90.9125653,197.276542 95.0648407,196.80096 C99.2171162,196.324452 85.8501894,196.624819 83.5338221,191.105575 C83.5338221,191.105575 81.9815696,190.326382 76.9367489,187.656452 C71.8919283,184.986523 27.8444534,156.952264 27.8444534,156.952264" id="Fill-153" fill="#24C7F4"></path>
                        <path d="M319.255193,165.852121 L95.5081567,190.993957 C95.5081567,190.993957 82.757511,192.773446 78.7660046,189.325251 L81.6487593,196.111321 C81.6487593,196.111321 87.2359443,198.315867 103.269881,195.779898 C119.303356,193.243928 315.928475,171.975808 315.928475,171.975808 L321.140071,170.635745 L320.36302,165.428456 C320.36302,165.428456 320.697032,165.630091 319.255193,165.852121" id="Fill-155" fill="#F9AE32"></path>
                        <polygon id="Fill-157" fill="#F9AE32" points="199.268106 174.417913 201.505475 176.643318 234.878904 173.082948 230.998273 171.028586"></polygon>
                        <path d="M198.622489,174.195651 L201.505244,176.643086 L167.576977,180.425486 C167.576977,180.425486 165.24906,179.312552 164.306621,178.645533 C163.364182,177.978051 198.622489,174.195651 198.622489,174.195651" id="Fill-159" fill="#24C7F4"></path>
                        <g id="Group-163" transform="translate(83.156385, 134.423529)">
                            <mask id="mask-8" fill="white">
                                <use xlink:href="#path-7"></use>
                            </mask>
                            <g id="Clip-162"></g>
                            <path d="M0.0446734577,56.57052 C19.7970867,54.3386259 39.5448801,52.0617694 59.304223,49.8915247 L88.9397725,46.60232 L118.580866,43.3705929 L177.869058,36.9534918 L237.167876,30.6411482 L237.07317,31.3457129 L198.259927,15.9152824 L159.483181,0.390755294 L198.430398,15.4804918 L237.339732,30.6638612 L238.730754,31.2066541 L237.245488,31.3688894 L177.963764,37.8392965 L118.670028,44.2044824 L89.0215429,47.3643624 L59.3661283,50.4667647 C39.5984697,52.5572824 19.8192617,54.5416518 0.0446734577,56.57052" id="Fill-161" fill="#84299F" mask="url(#mask-8)"></path>
                        </g>
                        <path d="M56.2584818,157.271358 L50.4929725,157.841962 C50.4929725,157.841962 49.605509,158.509445 52.3778505,158.731939 C55.14973,158.954896 57.034608,158.286951 57.034608,158.286951 L61.8022407,158.06492 L61.8535205,157.49756 L59.2521116,156.975162 L56.2584818,157.271358 Z" id="Fill-164" fill="#24C7F4"></path>
                        <path d="M70.0069116,155.8251 L64.2414023,156.395704 C64.2414023,156.395704 63.3539389,157.063187 66.1262803,157.285681 C68.8981598,157.508638 70.7830379,156.840692 70.7830379,156.840692 L75.5506706,156.618662 L75.6024123,156.051302 L73.0005415,155.528904 L70.0069116,155.8251 Z" id="Fill-166" fill="#24C7F4"></path>
                        <path d="M82.7993202,154.466217 L77.0342729,155.036821 C77.0342729,155.036821 76.1463475,155.704304 78.918689,155.926798 C81.6905684,156.149756 83.5754465,155.48181 83.5754465,155.48181 L88.3430792,155.259779 L88.3948209,154.692419 L85.7929501,154.170021 L82.7993202,154.466217 Z" id="Fill-168" fill="#24C7F4"></path>
                        <path d="M95.6054958,153.458596 L89.8404485,154.029201 C89.8404485,154.029201 88.9525231,154.696684 91.7248646,154.919178 C94.496744,155.142135 96.3816221,154.474189 96.3816221,154.474189 L101.149255,154.252159 L101.200997,153.684799 L98.5991257,153.162401 L95.6054958,153.458596 Z" id="Fill-170" fill="#24C7F4"></path>
                        <path d="M108.522639,152.079318 L102.75713,152.649923 C102.75713,152.649923 101.869666,153.317405 104.642008,153.5399 C107.413887,153.762857 109.298765,153.095375 109.298765,153.095375 L114.066398,152.873344 L114.117678,152.305521 L111.516269,151.783123 L108.522639,152.079318 Z" id="Fill-172" fill="#24C7F4"></path>
                        <path d="M121.49485,150.903715 L115.729803,151.47432 C115.729803,151.47432 114.841877,152.141802 117.614219,152.364296 C120.386098,152.587254 122.270976,151.919308 122.270976,151.919308 L127.038609,151.697277 L127.090351,151.129917 L124.48848,150.60752 L121.49485,150.903715 Z" id="Fill-174" fill="#24C7F4"></path>
                        <path d="M133.736209,149.682454 L127.9707,150.253059 C127.9707,150.253059 127.083236,150.920541 129.855578,151.143035 C132.627457,151.365993 134.512335,150.698047 134.512335,150.698047 L139.279968,150.476016 L139.331248,149.908656 L136.729839,149.386259 L133.736209,149.682454 Z" id="Fill-176" fill="#24C7F4"></path>
                        <path d="M145.218951,148.46657 L139.453904,149.037175 C139.453904,149.037175 138.565978,149.704657 141.33832,149.927151 C144.110199,150.150109 145.995077,149.482163 145.995077,149.482163 L150.76271,149.260132 L150.814452,148.692772 L148.212581,148.170375 L145.218951,148.46657 Z" id="Fill-178" fill="#24C7F4"></path>
                        <path d="M157.584813,147.130771 L151.819766,147.701376 C151.819766,147.701376 150.932303,148.368858 153.704182,148.591352 C156.476524,148.81431 158.36094,148.146364 158.36094,148.146364 L163.128572,147.924333 L163.180314,147.356973 L160.578443,146.834576 L157.584813,147.130771 Z" id="Fill-180" fill="#24C7F4"></path>
                        <path d="M168.838321,146.09279 L163.073273,146.663394 C163.073273,146.663394 162.18581,147.330877 164.95769,147.553371 C167.730031,147.776328 169.614447,147.108383 169.614447,147.108383 L174.38208,146.886352 L174.433822,146.318992 L171.831951,145.796594 L168.838321,146.09279 Z" id="Fill-182" fill="#24C7F4"></path>
                        <path d="M180.923808,144.822163 L175.15876,145.393231 C175.15876,145.393231 174.271297,146.06025 177.043176,146.283208 C179.815518,146.506165 181.699934,145.838219 181.699934,145.838219 L186.467567,145.616189 L186.519308,145.048365 L183.917438,144.525968 L180.923808,144.822163 Z" id="Fill-184" fill="#24C7F4"></path>
                        <path d="M193.23123,143.7204 L187.466182,144.291004 C187.466182,144.291004 186.578719,144.958487 189.350599,145.180981 C192.12294,145.403939 194.007356,144.735993 194.007356,144.735993 L198.774989,144.513962 L198.826731,143.946602 L196.22486,143.424204 L193.23123,143.7204 Z" id="Fill-186" fill="#24C7F4"></path>
                        <path d="M204.872754,142.603665 L199.107707,143.174269 C199.107707,143.174269 198.220243,143.841752 200.992123,144.064246 C203.764464,144.287204 205.64888,143.619258 205.64888,143.619258 L210.416513,143.397227 L210.468255,142.829867 L207.866384,142.307469 L204.872754,142.603665 Z" id="Fill-188" fill="#24C7F4"></path>
                        <path d="M216.080294,141.328959 L210.315247,141.899564 C210.315247,141.899564 209.427784,142.567046 212.199663,142.78954 C214.972005,143.012498 216.856421,142.344552 216.856421,142.344552 L221.624053,142.122521 L221.675795,141.555161 L219.073924,141.032764 L216.080294,141.328959 Z" id="Fill-190" fill="#24C7F4"></path>
                        <path d="M227.934745,140.216303 L222.169698,140.786908 C222.169698,140.786908 221.282234,141.45439 224.054114,141.676884 C226.826455,141.899842 228.710871,141.231896 228.710871,141.231896 L233.478504,141.009865 L233.530246,140.442505 L230.928375,139.920108 L227.934745,140.216303 Z" id="Fill-192" fill="#24C7F4"></path>
                        <path d="M239.332667,139.129929 L233.567158,139.700534 C233.567158,139.700534 232.679695,140.368016 235.452036,140.59051 C238.223916,140.813468 240.108794,140.145522 240.108794,140.145522 L244.876426,139.923491 L244.927706,139.356131 L242.325835,138.833734 L239.332667,139.129929 Z" id="Fill-194" fill="#24C7F4"></path>
                        <path d="M63.7979016,159.396176 C63.7979016,159.396176 63.1326505,158.954433 60.2498958,159.176927 C57.3671412,159.399885 53.8463923,159.805009 54.3074482,159.985786 C54.7685042,160.167489 55.7174109,161.503381 57.7649059,161.396306 C59.8128628,161.289694 65.0267681,160.98052 65.4610293,160.748755 C65.8952904,160.516991 66.7518011,160.430311 66.0154052,160.319064 C65.2794712,160.207816 63.7979016,159.396176 63.7979016,159.396176" id="Fill-196" fill="#104DF0"></path>
                        <path d="M77.2693283,157.558839 C77.2693283,157.558839 76.2917788,157.653399 73.4090241,157.876356 C70.5262694,158.09885 67.0055205,158.503975 67.4665765,158.685215 C67.9276324,158.865992 68.8765392,160.202347 70.9240341,160.095735 C72.9719911,159.98866 78.1858964,159.679486 78.6201575,159.447721 C79.0544187,159.215956 81.276542,158.958234 80.5401461,158.846523 C79.8037501,158.735276 77.2693283,157.558839 77.2693283,157.558839" id="Fill-198" fill="#104DF0"></path>
                        <path d="M91.5746749,155.835992 C91.5746749,155.835992 90.5449217,155.935651 87.5087897,156.170197 C84.4726577,156.404743 80.7643449,156.83119 81.2498858,157.022628 C81.7354267,157.213138 82.7351512,158.620414 84.8916735,158.507776 C87.0481957,158.395138 92.5402129,158.069277 92.997573,157.825461 C93.4549331,157.581644 95.7948614,157.309552 95.0196591,157.19228 C94.2439948,157.07547 91.5746749,155.835992 91.5746749,155.835992" id="Fill-200" fill="#104DF0"></path>
                        <path d="M105.832207,154.667667 C105.832207,154.667667 104.802453,154.767325 101.766321,155.001871 C98.7301894,155.236417 95.0223386,155.662864 95.5074175,155.854302 C95.9934204,156.044812 96.9926829,157.452088 99.1492052,157.33945 C101.306189,157.226812 106.797745,156.900951 107.255105,156.657135 C107.712465,156.413318 110.052855,156.141227 109.277191,156.023954 C108.501989,155.907144 105.832207,154.667667 105.832207,154.667667" id="Fill-202" fill="#104DF0"></path>
                        <path d="M119.561002,153.164812 C119.561002,153.164812 118.531249,153.26447 115.495579,153.499016 C112.458985,153.733562 108.751134,154.160009 109.236213,154.351447 C109.722216,154.541957 110.721479,155.949233 112.878001,155.836595 C115.034985,155.723957 120.52654,155.398096 120.9839,155.15428 C121.441261,154.910463 123.781651,154.638372 123.005987,154.521099 C122.230784,154.404289 119.561002,153.164812 119.561002,153.164812" id="Fill-204" fill="#104DF0"></path>
                        <path d="M133.152174,152.047613 C133.152174,152.047613 132.122421,152.147272 129.086289,152.381818 C126.050157,152.616364 122.341844,153.042811 122.827385,153.233785 C123.312926,153.424759 124.312651,154.831571 126.469173,154.719396 C128.625695,154.606759 134.117712,154.280898 134.575072,154.037081 C135.032432,153.792801 137.372361,153.521173 136.597158,153.4039 C135.821494,153.286627 133.152174,152.047613 133.152174,152.047613" id="Fill-206" fill="#104DF0"></path>
                        <path d="M146.346136,150.45831 C146.346136,150.45831 145.316382,150.557968 142.280712,150.792514 C139.244119,151.02706 135.536268,151.453507 136.021347,151.644945 C136.507349,151.835456 137.506612,153.242731 139.663134,153.130093 C141.820119,153.017456 147.311674,152.691594 147.769034,152.447778 C148.226394,152.203961 150.566784,151.93187 149.79112,151.814597 C149.015918,151.697787 146.346136,150.45831 146.346136,150.45831" id="Fill-208" fill="#104DF0"></path>
                        <path d="M160.205533,149.119312 C160.205533,149.119312 159.17578,149.218971 156.139648,149.453517 C153.103516,149.688063 149.395665,150.11451 149.880744,150.305948 C150.366747,150.496458 151.366009,151.903733 153.522532,151.791096 C155.679516,151.678458 161.171533,151.352597 161.628431,151.10878 C162.085791,150.864964 164.426182,150.592872 163.650517,150.475599 C162.874853,150.358326 160.205533,149.119312 160.205533,149.119312" id="Fill-210" fill="#104DF0"></path>
                        <path d="M173.407164,147.846414 C173.407164,147.846414 172.37741,147.946073 169.341278,148.180619 C166.305146,148.415165 162.596834,148.841612 163.082374,149.033049 C163.567915,149.22356 164.567178,150.630372 166.724162,150.518198 C168.880684,150.40556 174.372702,150.079699 174.830062,149.835882 C175.28696,149.592066 177.62735,149.319974 176.852148,149.202701 C176.076484,149.085428 173.407164,147.846414 173.407164,147.846414" id="Fill-212" fill="#104DF0"></path>
                        <path d="M186.994039,146.572635 C186.994039,146.572635 185.964286,146.672758 182.928616,146.907304 C179.892484,147.141849 176.184171,147.568296 176.66925,147.759271 C177.155253,147.950245 178.154515,149.357056 180.311038,149.244419 C182.468022,149.131781 187.960039,148.806384 188.416937,148.562567 C188.874297,148.318287 191.214688,148.046659 190.439023,147.929386 C189.663821,147.812113 186.994039,146.572635 186.994039,146.572635" id="Fill-214" fill="#104DF0"></path>
                        <path d="M199.566776,145.252225 C199.566776,145.252225 198.537023,145.352348 195.500891,145.586894 C192.465221,145.82144 188.756908,146.247887 189.241987,146.438861 C189.72799,146.629835 190.727253,148.036647 192.883775,147.924009 C195.040759,147.811371 200.532776,147.485974 200.989674,147.242157 C201.447034,146.997877 203.787425,146.726249 203.01176,146.608976 C202.236096,146.491703 199.566776,145.252225 199.566776,145.252225" id="Fill-216" fill="#104DF0"></path>
                        <path d="M212.206269,144.033653 C212.206269,144.033653 211.176516,144.133312 208.140384,144.367858 C205.104714,144.602404 201.396401,145.029314 201.88148,145.220288 C202.367483,145.410799 203.366746,146.818074 205.523268,146.705436 C207.680252,146.592799 213.172269,146.266938 213.629168,146.023121 C214.086528,145.779305 216.426918,145.507213 215.651254,145.390404 C214.875589,145.273131 212.206269,144.033653 212.206269,144.033653" id="Fill-218" fill="#104DF0"></path>
                        <path d="M224.180743,142.618127 C224.180743,142.618127 223.150989,142.717786 220.114857,142.952332 C217.079187,143.186877 213.370875,143.613324 213.855954,143.804762 C214.341956,143.995273 215.341219,145.402548 217.497741,145.28991 C219.654725,145.177273 225.146743,144.851412 225.603641,144.607595 C226.061001,144.363779 228.401391,144.091687 227.625727,143.974414 C226.850063,143.857604 224.180743,142.618127 224.180743,142.618127" id="Fill-220" fill="#104DF0"></path>
                        <path d="M246.563716,140.635936 C246.563716,140.635936 236.788683,141.691856 233.752551,141.926402 C230.716419,142.160948 227.008106,142.588322 227.493647,142.778832 C227.979188,142.969343 228.978912,144.376618 231.135434,144.263981 C233.291957,144.151343 238.783974,143.825945 239.240872,143.581665 C239.698694,143.337849 251.398797,142.273585 250.623133,142.156312 C249.847469,142.03904 246.563716,140.635936 246.563716,140.635936" id="Fill-222" fill="#104DF0"></path>
                        <polygon id="Stroke-224" stroke="#84299F" stroke-width="3" points="149.837364 169.745954 163.475011 177.755279 229.002242 170.746714 212.370965 163.293161"></polygon>
                        <polygon id="Fill-226" fill="#104EEE" points="149.837364 169.745954 163.475011 177.755279 229.002242 170.746714 212.370965 163.293161"></polygon>
                        <path d="M253.441118,143.279027 C253.441118,143.279027 239.803471,144.725702 239.13822,144.836486 C238.473431,144.947733 242.020975,146.505192 242.020975,146.505192 L258.320088,145.170227 C258.320088,145.170227 256.212998,143.14414 253.441118,143.279027" id="Fill-228" fill="#84299F"></path>
                        <path d="M73.444458,161.124909 C73.444458,161.124909 59.8063489,162.571585 59.1415598,162.682368 C58.4763088,162.793615 62.0243145,164.351074 62.0243145,164.351074 L78.3229659,163.016109 C78.3229659,163.016109 76.2163374,160.990022 73.444458,161.124909" id="Fill-230" fill="#84299F"></path>
                        <path d="M81.9910864,163.518622 C81.9910864,163.518622 65.2392327,165.518288 64.5739816,165.629535 C63.9087306,165.740318 65.9044838,167.409951 65.9044838,167.409951 L86.8695943,165.409822 C86.8695943,165.409822 84.7629659,163.383735 81.9910864,163.518622" id="Fill-232" fill="#F9AE32"></path>
                        <path d="M94.4146964,166.195689 C94.4146964,166.195689 70.9017667,168.518899 70.2365156,168.629682 C69.5712646,168.740466 71.5665558,170.410099 71.5665558,170.410099 L98.8344582,167.520456 C98.8344582,167.520456 97.1865759,166.060339 94.4146964,166.195689" id="Fill-234" fill="#F9AE32"></path>
                        <path d="M199.509491,158.843464 C199.509491,158.843464 135.091011,165.518288 134.42576,165.629535 C133.760509,165.740318 138.58358,168.215102 138.58358,168.215102 L204.12929,161.27004 C205.920386,161.187532 200.840455,159.065958 199.509491,158.843464" id="Fill-236" fill="#FFFFFF"></path>
                        <path d="M259.017354,146.122687 C259.017354,146.122687 235.792238,148.222012 236.430694,148.438944 C237.494634,148.800497 240.311788,150.149831 240.311788,150.149831 L263.437116,147.447454 C263.437116,147.447454 261.789234,145.987337 259.017354,146.122687" id="Fill-238" fill="#F9AE32"></path>
                        <path d="M265.200401,148.783902 C265.200401,148.783902 235.459058,151.284644 236.097976,151.501112 C237.161916,151.863128 239.05511,153.000629 239.05511,153.000629 L269.620163,150.109133 C269.620163,150.109133 267.972281,148.649015 265.200401,148.783902" id="Fill-240" fill="#104EEE"></path>
                        <path d="M88.2875954,159.472705 C88.2875954,159.472705 79.3205653,160.401155 78.6553142,160.511938 C77.9900631,160.622722 81.7598192,162.626096 81.7598192,162.626096 L93.1661033,161.364369 C93.1661033,161.364369 91.0594749,159.337818 88.2875954,159.472705" id="Fill-242" fill="#84299F"></path>
                        <path d="M102.248721,157.94723 C102.248721,157.94723 93.2816907,158.875679 92.6164396,158.986463 C91.9511885,159.097246 95.7209446,161.10062 95.7209446,161.10062 L107.127229,159.83843 C107.127229,159.83843 105.0206,157.812343 102.248721,157.94723" id="Fill-244" fill="#84299F"></path>
                        <path d="M97.4856617,162.260186 C97.4856617,162.260186 88.5186316,163.188635 87.8533805,163.299419 C87.1881294,163.410202 90.9578855,165.413576 90.9578855,165.413576 L102.36417,164.151386 C102.36417,164.151386 100.257541,162.125299 97.4856617,162.260186" id="Fill-246" fill="#84299F"></path>
                        <path d="M85.9731684,170.524498 C85.9731684,170.524498 75.1069389,171.58598 74.4421498,171.696764 C73.7768987,171.808474 77.9264023,174.473768 77.9264023,174.473768 L91.0734267,173.08318 C91.0734267,173.08318 88.7450479,170.389611 85.9731684,170.524498" id="Fill-248" fill="#24C7F4"></path>
                        <path d="M100.386803,168.864599 C100.386803,168.864599 91.3310729,169.767554 90.6658218,169.878801 C90.0005707,169.989585 94.1500743,172.655343 94.1500743,172.655343 L105.597937,171.44414 C105.597937,171.44414 103.158683,168.729712 100.386803,168.864599" id="Fill-250" fill="#24C7F4"></path>
                        <path d="M115.650204,167.296572 C115.650204,167.296572 106.594473,168.199527 105.929222,168.310774 C105.263971,168.421558 109.413475,171.087315 109.413475,171.087315 L120.861337,169.876113 C120.861337,169.876113 118.422083,167.161685 115.650204,167.296572" id="Fill-252" fill="#24C7F4"></path>
                        <path d="M129.731305,165.794597 C129.731305,165.794597 120.675575,166.697553 120.010324,166.8088 C119.345073,166.919583 123.494576,169.585341 123.494576,169.585341 L134.942439,168.374139 C134.942439,168.374139 132.503185,165.65971 129.731305,165.794597" id="Fill-254" fill="#F9AE32"></path>
                        <path d="M111.446787,160.73471 C111.446787,160.73471 102.479757,161.662696 101.814506,161.77348 C101.149255,161.884727 104.919011,163.887637 104.919011,163.887637 L116.325295,162.62591 C116.325295,162.62591 114.218667,160.599823 111.446787,160.73471" id="Fill-256" fill="#F9AE32"></path>
                        <path d="M110.347136,164.57964 C110.347136,164.57964 101.380106,165.50809 100.714855,165.618873 C100.049604,165.729657 103.81936,167.733031 103.81936,167.733031 L115.225644,166.47084 C115.225644,166.47084 113.119016,164.444753 110.347136,164.57964" id="Fill-258" fill="#84299F"></path>
                        <path d="M124.308262,163.054165 C124.308262,163.054165 115.341232,163.982151 114.67598,164.093398 C114.010729,164.204182 117.780486,166.207092 117.780486,166.207092 L129.18677,164.945365 C129.18677,164.945365 127.080141,162.919278 124.308262,163.054165" id="Fill-260" fill="#84299F"></path>
                        <path d="M138.854069,161.443586 C138.854069,161.443586 129.887039,162.371572 129.221788,162.482355 C128.556537,162.593139 132.326755,164.596513 132.326755,164.596513 L143.732577,163.334786 C143.732577,163.334786 141.625948,161.308699 138.854069,161.443586" id="Fill-262" fill="#84299F"></path>
                        <path d="M152.815425,159.917647 C152.815425,159.917647 143.848395,160.846096 143.183144,160.95688 C142.517893,161.067664 146.287649,163.071038 146.287649,163.071038 L157.693933,161.808847 C157.693933,161.808847 155.587305,159.78276 152.815425,159.917647" id="Fill-264" fill="#84299F"></path>
                        <path d="M165.781307,158.422487 C165.781307,158.422487 156.814277,159.350472 156.149026,159.461256 C155.484237,159.57204 159.253531,161.575414 159.253531,161.575414 L170.660277,160.313687 C170.660277,160.313687 168.553187,158.287136 165.781307,158.422487" id="Fill-266" fill="#F9AE32"></path>
                        <path d="M179.742664,156.896594 C179.742664,156.896594 170.775634,157.825044 170.110382,157.935827 C169.445131,158.046611 173.214888,160.049985 173.214888,160.049985 L184.621634,158.787794 C184.621634,158.787794 182.514543,156.761707 179.742664,156.896594" id="Fill-268" fill="#84299F"></path>
                        <path d="M193.282232,155.873075 C193.282232,155.873075 184.315202,156.801061 183.649489,156.911844 C182.9847,157.022628 186.754456,159.026002 186.754456,159.026002 L198.16074,157.764275 C198.16074,157.764275 196.054112,155.737724 193.282232,155.873075" id="Fill-270" fill="#84299F"></path>
                        <path d="M207.243589,154.347182 C207.243589,154.347182 198.276559,155.275632 197.610846,155.386415 C196.946057,155.497199 200.715813,157.500573 200.715813,157.500573 L212.122097,156.238382 C212.122097,156.238382 210.015468,154.212295 207.243589,154.347182" id="Fill-272" fill="#84299F"></path>
                        <path d="M219.481067,152.858326 C219.481067,152.858326 210.514037,153.786312 209.848324,153.897559 C209.183535,154.008342 212.953291,156.011253 212.953291,156.011253 L224.359575,154.749526 C224.359575,154.749526 222.252947,152.723439 219.481067,152.858326" id="Fill-274" fill="#84299F"></path>
                        <path d="M213.707242,157.250545 C213.707242,157.250545 204.268069,158.198463 203.602818,158.309246 C202.937566,158.42003 208.157939,160.956926 208.157939,160.956926 L219.227902,159.459263 C219.227902,159.459263 216.479122,157.115195 213.707242,157.250545" id="Fill-276" fill="#24C7F4"></path>
                        <path d="M227.110065,155.880352 C227.110065,155.880352 218.452561,156.730002 217.78731,156.840785 C217.122059,156.952032 222.9042,158.843696 222.9042,158.843696 L232.631187,158.08907 C232.631187,158.08907 229.881944,155.745465 227.110065,155.880352" id="Fill-278" fill="#24C7F4"></path>
                        <path d="M244.418512,155.499192 C244.418512,155.499192 235.267614,156.396585 234.602825,156.507368 C233.938036,156.618152 236.097792,157.62123 236.097792,157.62123 L248.099568,156.632058 C248.099568,156.632058 247.190391,155.364305 244.418512,155.499192" id="Fill-280" fill="#F9AE32"></path>
                        <path d="M258.185421,154.005376 C258.185421,154.005376 249.034523,154.902769 248.369734,155.013552 C247.704483,155.124336 249.864701,156.127413 249.864701,156.127413 L261.866015,155.138242 C261.866015,155.138242 260.9573,153.870489 258.185421,154.005376" id="Fill-282" fill="#F9AE32"></path>
                        <path d="M273.227302,152.67004 C273.227302,152.67004 264.076404,153.567433 263.411615,153.678217 C262.746364,153.789 264.906582,154.792078 264.906582,154.792078 L276.908358,153.802906 C276.908358,153.802906 275.999182,152.535153 273.227302,152.67004" id="Fill-284" fill="#F9AE32"></path>
                        <path d="M255.638664,152.457744 C255.638664,152.457744 246.487766,153.355137 245.822977,153.46592 C245.157726,153.576704 247.317944,154.579781 247.317944,154.579781 L259.31972,153.591073 C259.31972,153.591073 258.410544,152.322857 255.638664,152.457744" id="Fill-286" fill="#F9AE32"></path>
                        <path d="M233.441962,151.332851 C233.441962,151.332851 224.475393,152.260836 223.80968,152.37162 C223.144891,152.482404 226.914647,154.485778 226.914647,154.485778 L238.320931,153.224051 C238.320931,153.224051 236.213841,151.1975 233.441962,151.332851" id="Fill-288" fill="#84299F"></path>
                        <path d="M125.972082,159.324237 C125.972082,159.324237 117.005052,160.252686 116.339801,160.36347 C115.67455,160.474253 119.444306,162.477627 119.444306,162.477627 L130.85059,161.215437 C130.85059,161.215437 128.743962,159.18935 125.972082,159.324237" id="Fill-290" fill="#84299F"></path>
                        <path d="M139.933254,157.798715 C139.933254,157.798715 130.966224,158.726701 130.300973,158.837484 C129.635722,158.948268 133.40594,160.951642 133.40594,160.951642 L144.811762,159.689915 C144.811762,159.689915 142.705133,157.663828 139.933254,157.798715" id="Fill-292" fill="#F9AE32"></path>
                        <path d="M153.255738,156.388241 C153.255738,156.388241 144.288708,157.316691 143.623457,157.427474 C142.958206,157.538258 146.727962,159.541632 146.727962,159.541632 L158.134246,158.279441 C158.134246,158.279441 156.027618,156.253354 153.255738,156.388241" id="Fill-294" fill="#84299F"></path>
                        <path d="M167.21691,154.862766 C167.21691,154.862766 158.24988,155.790752 157.584629,155.901536 C156.919378,156.012319 160.689134,158.015693 160.689134,158.015693 L172.09588,156.753966 C172.09588,156.753966 169.988789,154.727879 167.21691,154.862766" id="Fill-296" fill="#84299F"></path>
                        <path d="M180.641815,153.588477 C180.641815,153.588477 171.674785,154.516927 171.009072,154.62771 C170.344283,154.738494 174.114039,156.741868 174.114039,156.741868 L185.520323,155.479677 C185.520323,155.479677 183.413695,153.45359 180.641815,153.588477" id="Fill-298" fill="#F9AE32"></path>
                        <path d="M194.603172,152.063002 C194.603172,152.063002 185.636141,152.990988 184.970428,153.101772 C184.305639,153.212555 188.075395,155.215929 188.075395,155.215929 L199.481679,153.954202 C199.481679,153.954202 197.375051,151.928115 194.603172,152.063002" id="Fill-300" fill="#F9AE32"></path>
                        <path d="M206.864165,150.799606 C206.864165,150.799606 197.897135,151.728056 197.231422,151.838839 C196.566632,151.949623 200.336389,153.952997 200.336389,153.952997 L211.742673,152.690806 C211.742673,152.690806 209.636044,150.664719 206.864165,150.799606" id="Fill-302" fill="#84299F"></path>
                        <path d="M220.825521,149.274131 C220.825521,149.274131 211.858491,150.202117 211.192778,150.3129 C210.527989,150.423684 214.297745,152.427058 214.297745,152.427058 L225.704029,151.165331 C225.704029,151.165331 223.597401,149.139244 220.825521,149.274131" id="Fill-304" fill="#24C7F4"></path>
                        <path d="M233.756431,148.454379 C233.756431,148.454379 224.789401,149.382829 224.123688,149.493612 C223.458899,149.604396 227.228655,151.60777 227.228655,151.60777 L238.634939,150.345579 C238.634939,150.345579 236.528311,148.319492 233.756431,148.454379" id="Fill-306" fill="#84299F"></path>
                        <path d="M116.440605,156.367429 C116.440605,156.367429 107.473575,157.295878 106.808324,157.406662 C106.143073,157.517445 109.913291,159.52082 109.913291,159.52082 L120.569782,158.341601 C120.569782,158.341601 119.212485,156.232542 116.440605,156.367429" id="Fill-308" fill="#84299F"></path>
                        <path d="M130.487705,155.211757 C130.487705,155.211757 121.520675,156.140207 120.855424,156.25099 C120.190173,156.361774 123.959929,158.365148 123.959929,158.365148 L134.616881,157.185929 C134.616881,157.185929 133.259585,155.07687 130.487705,155.211757" id="Fill-310" fill="#84299F"></path>
                        <path d="M144.322941,153.503373 C144.322941,153.503373 135.355911,154.431823 134.69066,154.542606 C134.025409,154.65339 137.795165,156.656764 137.795165,156.656764 L148.452117,155.477545 C148.452117,155.477545 147.09482,153.368486 144.322941,153.503373" id="Fill-312" fill="#84299F"></path>
                        <path d="M158.128425,152.32828 C158.128425,152.32828 149.161395,153.256266 148.496144,153.367049 C147.830893,153.477833 151.600649,155.481207 151.600649,155.481207 L162.257602,154.302452 C162.257602,154.302452 160.900305,152.192929 158.128425,152.32828" id="Fill-314" fill="#F9AE32"></path>
                        <path d="M171.501958,151.083425 C171.501958,151.083425 162.534928,152.011411 161.869215,152.122195 C161.204426,152.232978 164.974182,154.236352 164.974182,154.236352 L175.631135,153.057597 C175.631135,153.057597 174.273838,150.948538 171.501958,151.083425" id="Fill-316" fill="#84299F"></path>
                        <path d="M185.114566,149.821884 C185.114566,149.821884 176.147536,150.750333 175.482285,150.861117 C174.817496,150.9719 178.58679,152.975274 178.58679,152.975274 L189.243743,151.796056 C189.243743,151.796056 187.886446,149.686997 185.114566,149.821884" id="Fill-318" fill="#84299F"></path>
                        <path d="M198.419957,148.140663 C198.419957,148.140663 189.452927,149.068648 188.787676,149.179432 C188.122887,149.290216 191.892181,151.29359 191.892181,151.29359 L202.549134,150.114834 C202.549134,150.114834 201.191837,148.005776 198.419957,148.140663" id="Fill-320" fill="#84299F"></path>
                        <path d="M211.454628,146.874578 C211.454628,146.874578 202.487598,147.803028 201.821885,147.913811 C201.157096,148.024595 204.926852,150.027969 204.926852,150.027969 L215.583805,148.84875 C215.583805,148.84875 214.226508,146.739691 211.454628,146.874578" id="Fill-322" fill="#84299F"></path>
                        <path d="M223.79365,145.647848 C223.79365,145.647848 214.82662,146.575834 214.161368,146.686617 C213.496117,146.797401 217.265873,148.800775 217.265873,148.800775 L227.922826,147.62202 C227.922826,147.62202 226.565529,145.512497 223.79365,145.647848" id="Fill-324" fill="#84299F"></path>
                        <path d="M236.10061,144.543767 C236.10061,144.543767 227.13358,145.472216 226.467867,145.583 C225.803077,145.693784 229.572834,147.697158 229.572834,147.697158 L240.229324,146.517939 C240.229324,146.517939 238.872489,144.40888 236.10061,144.543767" id="Fill-326" fill="#84299F"></path>
                        <path d="M242.639612,135.277721 C245.915512,136.436545 249.170622,137.650992 252.436358,138.835773 L262.197994,142.484213 C268.702671,144.925623 275.176857,147.444905 281.667675,149.921079 C288.131698,152.46771 294.610042,154.976794 301.060206,157.55819 L310.729446,161.447665 C313.940206,162.775677 317.162516,164.074023 320.363113,165.428456 C317.086751,164.270096 313.832565,163.056112 310.565905,161.871331 L300.803807,158.223354 C294.300516,155.779164 287.825405,153.26359 281.33505,150.784634 C274.871951,148.23615 268.39222,145.73031 261.942981,143.146597 L252.273741,139.257121 C249.062519,137.930037 245.840671,136.631227 242.639612,135.277721" id="Fill-328" fill="#84299F"></path>
                        <path d="M242.639612,135.741251 C245.915512,136.900074 249.170622,138.114521 252.436358,139.299303 L262.197994,142.947743 C268.702671,145.389152 275.176857,147.908434 281.667675,150.384608 C288.131698,152.931239 294.610042,155.440324 301.060206,158.021719 L310.729446,161.911194 C313.940206,163.239206 317.162516,164.537552 320.363113,165.891985 C317.086751,164.733625 313.832565,163.519641 310.565905,162.33486 L300.803807,158.686884 C294.300516,156.242693 287.825405,153.727119 281.33505,151.248164 C274.871951,148.699679 268.39222,146.193839 261.942981,143.610126 L252.273741,139.720651 C249.062519,138.393566 245.840671,137.094757 242.639612,135.741251" id="Fill-330" fill="#84299F"></path>
                        <path d="M242.639612,136.20478 C245.915512,137.363604 249.170622,138.578051 252.436358,139.762832 L262.197994,143.411272 C268.702671,145.852681 275.176857,148.371964 281.667675,150.848138 C288.131698,153.394768 294.610042,155.903853 301.060206,158.485248 L310.729446,162.374724 C313.940206,163.702736 317.162516,165.001081 320.363113,166.355514 C317.086751,165.197154 313.832565,163.983171 310.565905,162.79839 L300.803807,159.150413 C294.300516,156.706223 287.825405,154.190648 281.33505,151.711693 C274.871951,149.163208 268.39222,146.657368 261.942981,144.073656 L252.273741,140.18418 C249.062519,138.857096 245.840671,137.558286 242.639612,136.20478" id="Fill-332" fill="#84299F"></path>
                        <path d="M242.639612,136.66831 C245.915512,137.827133 249.170622,139.04158 252.436358,140.226361 L262.197994,143.874801 C268.702671,146.316211 275.176857,148.835493 281.667675,151.311667 C288.131698,153.858298 294.610042,156.367383 301.060206,158.948778 L310.729446,162.838253 C313.940206,164.166265 317.162516,165.464611 320.363113,166.819044 C317.086751,165.660684 313.832565,164.4467 310.565905,163.261919 L300.803807,159.613943 C294.300516,157.169752 287.825405,154.654178 281.33505,152.175223 C274.871951,149.626738 268.39222,147.120898 261.942981,144.537185 L252.273741,140.64771 C249.062519,139.320625 245.840671,138.021816 242.639612,136.66831" id="Fill-334" fill="#84299F"></path>
                        <path d="M242.639612,137.131839 C245.915512,138.290663 249.170622,139.50511 252.436358,140.689891 L262.197994,144.338331 C268.702671,146.77974 275.176857,149.299023 281.667675,151.775197 C288.131698,154.321827 294.610042,156.830912 301.060206,159.412307 L310.729446,163.301783 C313.940206,164.629794 317.162516,165.92814 320.363113,167.282573 C317.086751,166.124213 313.832565,164.91023 310.565905,163.725448 L300.803807,160.077472 C294.300516,157.633281 287.825405,155.117707 281.33505,152.638752 C274.871951,150.090267 268.39222,147.584427 261.942981,145.000714 L252.273741,141.111239 C249.062519,139.784154 245.840671,138.485345 242.639612,137.131839" id="Fill-336" fill="#84299F"></path>
                        <path d="M242.639612,137.595368 C245.915512,138.754192 249.170622,139.968639 252.436358,141.15342 L262.197994,144.80186 C268.702671,147.24327 275.176857,149.762552 281.667675,152.238726 C288.131698,154.785357 294.610042,157.294441 301.060206,159.875837 L310.729446,163.765312 C313.940206,165.093324 317.162516,166.39167 320.363113,167.746103 C317.086751,166.587743 313.832565,165.373759 310.565905,164.188978 L300.803807,160.541001 C294.300516,158.096811 287.825405,155.581237 281.33505,153.102281 C274.871951,150.553797 268.39222,148.047957 261.942981,145.464244 L252.273741,141.574768 C249.062519,140.247684 245.840671,138.948874 242.639612,137.595368" id="Fill-338" fill="#84299F"></path>
                        <path d="M242.639612,137.131839 C245.915512,138.290663 249.170622,139.50511 252.436358,140.689891 L262.197994,144.338331 C268.702671,146.77974 275.176857,149.299023 281.667675,151.775197 C288.131698,154.321827 294.610042,156.830912 301.060206,159.412307 L310.729446,163.301783 C313.940206,164.629794 317.162516,165.92814 320.363113,167.282573 C317.086751,166.124213 313.832565,164.91023 310.565905,163.725448 L300.803807,160.077472 C294.300516,157.633281 287.825405,155.117707 281.33505,152.638752 C274.871951,150.090267 268.39222,147.584427 261.942981,145.000714 L252.273741,141.111239 C249.062519,139.784154 245.840671,138.485345 242.639612,137.131839" id="Fill-340" fill="#84299F"></path>
                        <path d="M242.639612,136.66831 C245.915512,137.827133 249.170622,139.04158 252.436358,140.226361 L262.197994,143.874801 C268.702671,146.316211 275.176857,148.835493 281.667675,151.311667 C288.131698,153.858298 294.610042,156.367383 301.060206,158.948778 L310.729446,162.838253 C313.940206,164.166265 317.162516,165.464611 320.363113,166.819044 C317.086751,165.660684 313.832565,164.4467 310.565905,163.261919 L300.803807,159.613943 C294.300516,157.169752 287.825405,154.654178 281.33505,152.175223 C274.871951,149.626738 268.39222,147.120898 261.942981,144.537185 L252.273741,140.64771 C249.062519,139.320625 245.840671,138.021816 242.639612,136.66831" id="Fill-342" fill="#84299F"></path>
                        <path d="M242.639612,136.20478 C245.915512,137.363604 249.170622,138.578051 252.436358,139.762832 L262.197994,143.411272 C268.702671,145.852681 275.176857,148.371964 281.667675,150.848138 C288.131698,153.394768 294.610042,155.903853 301.060206,158.485248 L310.729446,162.374724 C313.940206,163.702736 317.162516,165.001081 320.363113,166.355514 C317.086751,165.197154 313.832565,163.983171 310.565905,162.79839 L300.803807,159.150413 C294.300516,156.706223 287.825405,154.190648 281.33505,151.711693 C274.871951,149.163208 268.39222,146.657368 261.942981,144.073656 L252.273741,140.18418 C249.062519,138.857096 245.840671,137.558286 242.639612,136.20478" id="Fill-344" fill="#84299F"></path>
                        <path d="M242.639612,135.741251 C245.915512,136.900074 249.170622,138.114521 252.436358,139.299303 L262.197994,142.947743 C268.702671,145.389152 275.176857,147.908434 281.667675,150.384608 C288.131698,152.931239 294.610042,155.440324 301.060206,158.021719 L310.729446,161.911194 C313.940206,163.239206 317.162516,164.537552 320.363113,165.891985 C317.086751,164.733625 313.832565,163.519641 310.565905,162.33486 L300.803807,158.686884 C294.300516,156.242693 287.825405,153.727119 281.33505,151.248164 C274.871951,148.699679 268.39222,146.193839 261.942981,143.610126 L252.273741,139.720651 C249.062519,138.393566 245.840671,137.094757 242.639612,135.741251" id="Fill-346" fill="#84299F"></path>
                        <path d="M242.639612,135.277721 C245.915512,136.436545 249.170622,137.650992 252.436358,138.835773 L262.197994,142.484213 C268.702671,144.925623 275.176857,147.444905 281.667675,149.921079 C288.131698,152.46771 294.610042,154.976794 301.060206,157.55819 L310.729446,161.447665 C313.940206,162.775677 317.162516,164.074023 320.363113,165.428456 C317.086751,164.270096 313.832565,163.056112 310.565905,161.871331 L300.803807,158.223354 C294.300516,155.779164 287.825405,153.26359 281.33505,150.784634 C274.871951,148.23615 268.39222,145.73031 261.942981,143.146597 L252.273741,139.257121 C249.062519,137.930037 245.840671,136.631227 242.639612,135.277721" id="Fill-348" fill="#84299F"></path>
                    </g>
                </g>
            </g>
        </g>
    </g>
</svg>